/* XPM */
static char *f560143e71a84aa4cba0b568719eae0efICk3V7qVWvJ2eem[] = {
/* columns rows colors chars-per-pixel */
"32 32 237 2 ",
"   c #0B0019",
".  c #1D021B",
"X  c #190414",
"o  c #22031C",
"O  c #260519",
"+  c #320A1C",
"@  c #28161B",
"#  c #36161D",
"$  c #37150B",
"%  c #362919",
"&  c #2E2514",
"*  c #1D0123",
"=  c #1B012A",
"-  c #170522",
";  c #160827",
":  c #270525",
">  c #271728",
",  c #3A1523",
"<  c #311432",
"1  c #2C232B",
"2  c #38272B",
"3  c #35392B",
"4  c #36342B",
"5  c #363833",
"6  c #2E3130",
"7  c #4C2C1D",
"8  c #443815",
"9  c #533718",
"0  c #4B370F",
"q  c #633817",
"w  c #4B192C",
"e  c #49193F",
"r  c #4B2836",
"t  c #582636",
"y  c #5A383A",
"u  c #4E302C",
"i  c #653334",
"p  c #3D591F",
"a  c #3B572A",
"s  c #2D4633",
"d  c #344E33",
"f  c #3A6936",
"g  c #3A7A34",
"h  c #396D2C",
"j  c #544B0E",
"k  c #7B5A04",
"l  c #695011",
"z  c #7A6718",
"x  c #71630B",
"c  c #504D38",
"v  c #724A2A",
"b  c #56782A",
"n  c #486534",
"m  c #497538",
"M  c #59793E",
"N  c #487B2A",
"B  c #747531",
"V  c #140D41",
"C  c #201349",
"Z  c #3C2E48",
"A  c #0C1475",
"S  c #271F74",
"D  c #342875",
"F  c #4D3149",
"G  c #4A324B",
"H  c #3B7941",
"J  c #2F764E",
"K  c #2B4B4A",
"L  c #514E50",
"P  c #795848",
"I  c #6B4A4E",
"U  c #497843",
"Y  c #577945",
"T  c #436B55",
"R  c #646252",
"E  c #405F64",
"W  c #69486D",
"Q  c #76647A",
"!  c #8B6601",
"~  c #867907",
"^  c #927907",
"/  c #907C17",
"(  c #A46819",
")  c #985F3B",
"_  c #87583E",
"`  c #9C643D",
"'  c #9C6522",
"]  c #B16F2B",
"[  c #825013",
"{  c #8C5A4B",
"}  c #986754",
"|  c #926D46",
" . c #B0754F",
".. c #917476",
"X. c #C27E4D",
"o. c #3E8534",
"O. c #3E843C",
"+. c #3D8B39",
"@. c #3F882E",
"#. c #448D36",
"$. c #41843D",
"%. c #448B3B",
"&. c #4A863B",
"*. c #568B39",
"=. c #4B9534",
"-. c #45933A",
";. c #4C943D",
":. c #4E993C",
">. c #499736",
",. c #539636",
"<. c #549C3B",
"1. c #579939",
"2. c #52952E",
"3. c #6A8F2D",
"4. c #5CAA36",
"5. c #5CA53C",
"6. c #5DAB3D",
"7. c #56A339",
"8. c #61A637",
"9. c #63AA35",
"0. c #61A63D",
"q. c #63AC3D",
"w. c #68AE3C",
"e. c #6BA63C",
"r. c #64B13D",
"t. c #6AB13D",
"y. c #368742",
"u. c #448D44",
"i. c #478A47",
"p. c #568743",
"a. c #4C9444",
"s. c #4A9648",
"d. c #549C43",
"f. c #5A9C45",
"g. c #539B48",
"h. c #589749",
"j. c #5C9A56",
"k. c #538956",
"l. c #669E4B",
"z. c #54A243",
"x. c #5CA443",
"c. c #5EAA44",
"v. c #59A449",
"b. c #5CB545",
"n. c #5FA952",
"m. c #63A544",
"M. c #63AC43",
"N. c #6AAD43",
"B. c #62A54C",
"V. c #64AD4A",
"C. c #69AA4C",
"Z. c #6DA348",
"A. c #65B243",
"S. c #6AB344",
"D. c #64B34B",
"F. c #6AB44A",
"G. c #66B945",
"H. c #69AC53",
"J. c #73AB59",
"K. c #6BB455",
"L. c #66B459",
"P. c #72B14D",
"I. c #6C8366",
"U. c #6FA760",
"Y. c #999706",
"T. c #948918",
"R. c #8D8D08",
"E. c #AB9700",
"W. c #9FA60A",
"Q. c #A7A502",
"!. c #B1B400",
"~. c #89882B",
"^. c #B08C2A",
"/. c #C7912E",
"(. c #D6B02B",
"). c #B4C40B",
"_. c #C8C905",
"`. c #D5D316",
"'. c #DFE811",
"]. c #D9DF29",
"[. c #EADF35",
"{. c #F3EF2F",
"}. c #9C8350",
"|. c #BC8E5B",
" X c #B1894B",
".X c #9AA34A",
"XX c #B68966",
"oX c #B1886F",
"OX c #DD9E58",
"+X c #CB8F49",
"@X c #E29346",
"#X c #DCA354",
"$X c #E3A55A",
"%X c #D49569",
"&X c #D6A877",
"*X c #DBA266",
"=X c #F8B96D",
"-X c #F1B06E",
";X c #EB9D6C",
":X c #FFF547",
">X c #11108C",
",X c #0033B7",
"<X c #2B2DAF",
"1X c #1611B5",
"2X c #1547A0",
"3X c #3F41B8",
"4X c #31548E",
"5X c #5C5193",
"6X c #6D588B",
"7X c #5C6492",
"8X c #656080",
"9X c #4847BC",
"0X c #0330CE",
"qX c #0D4CDA",
"wX c #0A51E8",
"eX c #1B62FA",
"rX c #5457C9",
"tX c #5B7CCB",
"yX c #6178DE",
"uX c #9E7F91",
"iX c #5280E0",
"pX c #B3938F",
"aX c #A18EAA",
"sX c #909E92",
"dX c #D1AD8B",
"fX c #FCC688",
"gX c #FFCE97",
"hX c #F7CE8C",
"jX c #FFE4A8",
"kX c #8B92CD",
"lX c #B6BBD5",
"zX c #ACBEFF",
"xX c #AEC6F2",
"cX c #C6C4DA",
"vX c #FEE0C4",
"bX c #C7CBEB",
"nX c #E1D1D2",
/* pixels */
"K.K.u.i.A.A.K.A.u.u.n.S.s.u.B.G.b.B.h.$.7.K.6.D.d.O.v.G.d.O.f.F.",
"S.V.a.-.M.r.M.V.s.-.d.h.&.o.f.1.8.8.=.+.5.A.9.q.<.-.a.5.d.%.<.S.",
"A.S.c.A.n.V.A.V.N.M.H 6 3 3 3 5 5 n m m 1.M.4.V.m.V.;.o.-.F.F.S.",
"A.M.4.c.c.V.c.5.q.M.a.f @ * . : . > 2 @ 5 m 7.g.5.M.,.%.<.q.x.x.",
"D.M.%.$.6.M.%.+.c.B.&.p.4 = . . o . * o . 6 N +.1.q.m.B.r.r.:.%.",
"B.x.a.s.q.A.a.%.d.a 1 2 . : * . * . * : : : a o.7.4.q.x.q.r.<.%.",
"i.-.c.V.M.D.V.c.f.b 2 O X = * o - , y . = : 6 *.M.q.0.w.M.8.M.K.",
";.-.M.q.M.A.c.c.N.f.s O o : v :   i $Xy . X @ p.4.c.4.7.M.M.w.w.",
"H.M.q.q.N.m.p.d i.4.6 . * +  .r  .%XXX, - @ d o.,.r.a.y.>.w.t.M.",
"D.c.V.c.A.x.Y I.m l.d } F sXt w jX&XI pX .P f #.<.m.,.%.>.t.q.A.",
"F.c.a.-.6.0.*.I.sXT 1 %X*XnXF } &X{ Q vX-X}.U w.s.i.,.x.c.r.5.r.",
"S.q.%.+.c.N.l.M 4XqXA + ;XfX|.w O y &XfX .n 4.t.-.y.1.N.6.c.V.r.",
"D.G.V.m.A.6.F.M.m 2X0XV  .$Xt = < O _ =Xi 3 2.:.4.4.x.M.<.O.g.A.",
"L.M.w.m.V.c.r.A.q.n Z : , } w X.OX) t { : ~ / c *.9.4.q.7.O.:.N.",
"s.a.N.6.a.-.M.x.M }.=Xy X k 7 |.*X} O * v _.].].3.3.m.9.q.m.M.w.",
"s.i.m.M.y.+.C.p.| hX=Xt - ` ' t r e q k z W._.[._.b h.w.4.M.M.q.",
"C.6.s.i.f.M.K.m | fX#Xq = : ` ^./.+X].'.~.j T.^ ^ n &.e.<.#.d.M.",
"P.C.-.+.x.9.b.m } =X;X' + : O R._.`.:X[.Y.! ] ] 0 s ;.8.d.$.g.S.",
"H.V.5.6.M.t.G.U v $X+X! 0 X O l z Y.{.`.!.k  .] 8 k.f.#.d.v.x.N.",
"J.q.V.D.c.M.D.n l /.( Y.Q.l % . = > ! ^ ).j } @Xj ,.=.$.=.9.S.m.",
"J.A.:.-.x.V.d.f 7 v q R.Q._.Q.l j % ; > 9 $ I { u 1.q.x.5.5.d.-.",
"H.5.u.o.M.N.-.f .     & 7 / E.(.^./ 9 < = X 5 K 5 1.9.<.A.D.:.u.",
"j.;.g.g.N.M.x.n P oXXX6XaXuXG dXgXXXW 7XD ..oX&XR =.V.q.q.5.4.5.",
"k.o.M.A.M.V.D.*.B =XgXcXbXrX0XtXiXyXyX>X1XaXjX=XB 2.M.9.q.V.M.M.",
"j.g.q.M.q.S.d.i.g  X#X5X1X,XwXwXzXkX5X9XA W #X| m 6.z.-.>.M.M.c.",
"B.M.A.C.M.5.-.$.5.E S >X,XeXxXlXI y F 5X9X>XD C m t.7.g =.N.q.A.",
"N.q.d.h.M.V.x.d.T S 0XqXlXcXW r   1 R L Q iX<X>XK &.h.a.5.0.8.N.",
"V.M.%.$.d.V.V.D.J 7XlXbX.X3.: . - % R.Y.T.v 5XkXT g =.V.q.0.N.M.",
"x.D.g.:.6.M.c.c.7.T 7 F R @ > a n u , c L O @ R l.,.7.c.5.a.d.r.",
"c.V.q.q.A.V.V.c.H.h.1 Z L : a Z.V.,.5 < L 6 n 1.4.M.V.6.:.y.-.V.",
"c.d.c.q.g.h.V.M.M.b.m % > 3 d.r.7.<.U 6 @ 6 m b.M.m.Z.e.9.a.l.N.",
"s.i.B.F.i.i.B.D.H.D.b.C.D.V.A.n.g.O.g.S.h.i.h.w.w.H.J.Z.J.U.J.C."
};
