/* XPM */
static char *fd2b2e62addc4aa89c6861001a1a94f4xdCFvRLkSRj2ZJid[] = {
/* columns rows colors chars-per-pixel */
"32 32 233 2 ",
"   c #37043B",
".  c #64341E",
"X  c #4C063A",
"o  c #641E38",
"O  c #4B2B38",
"+  c #55252B",
"@  c #75373A",
"#  c #3C7D2C",
"$  c #3A7939",
"%  c #705C17",
"&  c #526C06",
"*  c #6D7A14",
"=  c #424937",
"-  c #487C35",
";  c #556826",
":  c #79752C",
">  c #3D0258",
",  c #370345",
"<  c #48194B",
"1  c #480A57",
"2  c #4D1B58",
"3  c #591757",
"4  c #521249",
"5  c #452844",
"6  c #54255D",
"7  c #5B3D57",
"8  c #463E4C",
"9  c #6E3248",
"0  c #541667",
"q  c #56086C",
"w  c #5C2D67",
"e  c #5B2477",
"r  c #523764",
"t  c #613C66",
"y  c #6C2D75",
"u  c #4B4249",
"i  c #594758",
"p  c #4F5951",
"a  c #6D4B4A",
"s  c #724F54",
"d  c #576B47",
"f  c #527150",
"g  c #707651",
"h  c #564866",
"j  c #585967",
"k  c #54546D",
"l  c #724867",
"z  c #634B79",
"x  c #7A5279",
"c  c #6C4A6C",
"v  c #596466",
"b  c #60706B",
"n  c #915935",
"m  c #813444",
"M  c #895348",
"N  c #9B574D",
"B  c #924E52",
"V  c #A26B49",
"C  c #B77753",
"Z  c #895B68",
"A  c #A65E69",
"S  c #8D6F78",
"D  c #B2776F",
"F  c #87674E",
"G  c #C07973",
"H  c #3C8432",
"J  c #3C883B",
"K  c #3F8B37",
"L  c #78871E",
"P  c #57982C",
"I  c #418436",
"U  c #448B35",
"Y  c #43863B",
"T  c #448C3B",
"R  c #4B8936",
"E  c #5A853A",
"W  c #4C933D",
"Q  c #4E993D",
"!  c #489536",
"~  c #549C35",
"^  c #53953E",
"/  c #539C3D",
"(  c #5A9938",
")  c #6B9329",
"_  c #668837",
"`  c #669D36",
"'  c #76822A",
"]  c #5EAB35",
"[  c #56A13D",
"{  c #5CA53D",
"}  c #5EAA3C",
"|  c #59A635",
" . c #5FBA39",
".. c #64AC35",
"X. c #61A63A",
"o. c #62AC3C",
"O. c #6CAD3B",
"+. c #61A534",
"@. c #65B23C",
"#. c #64B036",
"$. c #3D8442",
"%. c #478A45",
"&. c #4B9344",
"*. c #4C914A",
"=. c #4A9644",
"-. c #549B43",
";. c #599C43",
":. c #559848",
">. c #4C9751",
",. c #539352",
"<. c #659A45",
"1. c #628B47",
"2. c #57A143",
"3. c #5CA542",
"4. c #5EAA43",
"5. c #5BA44A",
"6. c #5DAB4A",
"7. c #56AD41",
"8. c #5DB342",
"9. c #5EB04A",
"0. c #5BA751",
"q. c #62A645",
"w. c #63AC43",
"e. c #6AAD45",
"r. c #63A44B",
"t. c #64AC4A",
"y. c #6AAC4B",
"u. c #64B243",
"i. c #6AB345",
"p. c #65B24B",
"a. c #6AB34B",
"s. c #6BB94B",
"d. c #68AA55",
"f. c #73AD56",
"g. c #6CB256",
"h. c #74B75A",
"j. c #70B04C",
"k. c #929210",
"l. c #A5AF00",
"z. c #8B8B25",
"x. c #96A025",
"c. c #B7BD33",
"v. c #BEC038",
"b. c #C6DA09",
"n. c #8CA847",
"m. c #A6BE44",
"M. c #B39275",
"N. c #88884C",
"B. c #C5834C",
"V. c #DA9C53",
"C. c #E3A357",
"Z. c #ECA857",
"A. c #C29B77",
"S. c #D39E7C",
"D. c #C5A579",
"F. c #F0AC6F",
"G. c #AEC251",
"H. c #530190",
"J. c #6E3491",
"K. c #5901B3",
"L. c #6604B8",
"P. c #6D19B7",
"I. c #7823B6",
"U. c #77508A",
"Y. c #706691",
"T. c #7758A6",
"R. c #587DB2",
"E. c #760FCE",
"W. c #7D30D2",
"Q. c #7A04E8",
"!. c #7A04FC",
"~. c #7C11F8",
"^. c #740CED",
"/. c #8013BA",
"(. c #843392",
"). c #8A7E8A",
"_. c #A17F90",
"`. c #8747BF",
"'. c #936CAA",
"]. c #843BCD",
"[. c #8B25D9",
"{. c #A438C2",
"}. c #8302FD",
"|. c #8705F8",
" X c #8B15FC",
".X c #8817F5",
"XX c #9518FF",
"oX c #8818E9",
"OX c #8E29FD",
"+X c #932BFD",
"@X c #9A2FFD",
"#X c #9528F5",
"$X c #9232FF",
"%X c #9D33FE",
"&X c #983AFB",
"*X c #9637EC",
"=X c #A337FE",
"-X c #884DCD",
";X c #8C59CF",
":X c #B75ADE",
">X c #9C4DFE",
",X c #9947F6",
"<X c #9A50EE",
"1X c #A345FE",
"2X c #A44BFE",
"3X c #AB4AFD",
"4X c #A748FB",
"5X c #B255FE",
"6X c #4E9CC0",
"7X c #56A5D0",
"8X c #5EC5F6",
"9X c #94859A",
"0X c #AE8D95",
"qX c #A899A7",
"wX c #BBB2B8",
"eX c #CBB294",
"rX c #EAB88A",
"tX c #C6B7BF",
"yX c #C8A9B4",
"uX c #FFDB8C",
"iX c #FEC58C",
"pX c #FBD8AF",
"aX c #BEB6C1",
"sX c #CBBDCA",
"dX c #C8C8CB",
"fX c #D7C9C7",
"gX c #CBCED6",
"hX c #E5DECC",
"jX c #D8E1DC",
"kX c #FDEED9",
"lX c #EAE0DE",
"zX c #FFF8F6",
"xX c #FFEBEF",
/* pixels */
"h.t.%.*.6.u.g.w.*.%.t.@.>.$.;.g.s.6.=.$.3.a.4.f.Q J -.u.5.J :.s.",
"u.p.W W 8.@.w.t.&.! -.6.! K ( ~ P ` / T ;.@.] 7./ T -.[ -.T ( s.",
"u.i.w.u.t.p.u.u.7.6.&.# f 6 3 q 1 2 d ] 8.} 8.} w.t.W H / t.a.@.",
"u.w.} 4.6.y.6.2.]  .f k Y.,XoX!.}.!.J.v 1.} 5.-.{ w./ Y ~ o.4.3.",
"p.w.T I | u.T Y r.} z oX@X~.XX X}.}.!.^.e | ! K / o.w.5.} #./ T ",
"t.2.*.&.} w.&.W 3.:.J..X#X>X=X2X+X.X X}.P.1.~ I ~ ..} q.} @./ %.",
"*.U 6.t.w.t.6.6.{ v <X3X>X>X2X2X>X>X,XXX^.z P X.o.q...w.o...w.g.",
"&.! w.w.w.u.} w.( t +X&X2X2X<X2X3X4X@X}.!.e R 5.X.w.{ | w.u...w.",
"t.} @.u.#.t.&.%.( r  X#X*X+X%X#X@X@X>X$X}.e - I ^ u.! $ -.#.@.@.",
"p.p.q.q.w.w.W I :.v -X5X*XL.K.L.K.K.[.5X[.h &.I / { -.K ! o.w.t.",
"a.p.T W 3.w.t.4.&.- 5 P.J.n 9 o N 9 y I.2 _ 8.w.:.I &.3.o.@.o.p.",
"u.t.U T 3.w.u.o.U - a 9 7 rXM D B.A.Z o a 1.] w.W Y / @.4.3...w.",
"s.a.3.3.p.u.@.4.u.:.i N 0XqX+ C.. '.yXn s E e.X.| 3.| ] Q T -.y.",
"p.w.u.@.4.4.u.p.e.} d X M.eXM.F.M.eXA.4 = [ 3...O.o.] ..-.T ^ a.",
":.W 8.4.W ! 4.6.e.e.f H.m uXpXiXiXuXB q j H / 3.{ o.w.w.w.3.4...",
"*.%.4.6.%.J 6.t.[ d ]..X(.s V Z.C M y OXx & R X.o.| 4.4.....w.t.",
"p.q.=.T r.q.w.q.d -X$X X<XP.L.{.E.K.Q.OXS l.x.) :.I -.4./ T :.e.",
"g.w.%.J q.w.u.2.7 4X$X.X3X#X|.!.}.}.!.+X_.b.v.' U R Q 4.[ H -.a.",
"h.O.3.6.w.w.u.~ h ,X2X#XOX1X%X&X$X%X*X'.v.l.k.* ~ q.W H Q ;.X.o.",
"y...w.p.o.w.y.;.i ,X4X3X+X~.#XoXXX/.q F c.k.* * +.i.^ H -.w.w.w.",
"g.w.*.*.{ e.:.p -X2X>X2X,X$X=XE.> U.qXs g k.. ; ~ q.{ / { } ~ *.",
"d.6.&.H 6.e.I 8 >X=X.X|.E.e 0 U.qXdXjXwXl n C ; P o.w.q.w.o./ Y ",
",.=./ ~ t.i.^ i <X:XA > w qX0XsXxXzX0X1 D F.F.' P { X.q.w.} } 5.",
"%.J r.u.w.o.w.i [.G V 1 4 2 s G.g 3 <   D C.C z.{ w.} } o.u.} p.",
"r.;.q.4.w.i.! r E.1 t yX9X, 9 m.g   Y.wXx X % L ^ ..~ ! Q } ..4.",
"r.o.e.4.e.w.U r E.6 tXzXlXS l wXfXgXtXgXdX6 % & ^ t.-.$ -.w.X.a.",
"d.u./ Q w.a./ i ].y sXpXV.C.B c tXhXkXkXfX7 : ) R W =.W / ..+.t.",
"t.6.Y %.;.y.5.1.;XW.7 M.M.D.N   a S.eXM.s 8 N.z.P # Q @.o.@.u.q.",
"w.w.-.=.5.u.} r.b T.v 6X8XR.O d + Y.8X7Xf [ n.' ~ -.;.4.5.&.[ w.",
"e.u.w.u.6.4.8.t.<.<.E h N.z 8 s.; t ).i E p.n.+.[ y.o.X./ H U i.",
";.-.} @.-.-.6.p.a.6.3.u 5 2 d  .- 5 2 u E Q ` O.w.X.` e.q.:.;.y.",
",.*.r.y.%.%.r.p.8.p.a.u.s.a.y.8.=.H 0.u.:.$.*.e.e.y.f.d.d.f.d.f."
};
