/* XPM */
static char *_ca51f62d6fc4a3ccc80223491aa1684IrINlCocsJ6RxhT9[] = {
/* columns rows colors chars-per-pixel */
"32 32 220 2 ",
"   c #061906",
".  c #061B17",
"X  c #010A0F",
"o  c #062113",
"O  c #0C2317",
"+  c #13241B",
"@  c #142616",
"#  c #1A3818",
"$  c #072800",
"%  c #25391A",
"&  c #091B27",
"*  c #0E1D32",
"=  c #0D2726",
"-  c #102128",
";  c #1E2928",
":  c #1A262A",
">  c #1A352A",
",  c #0E2234",
"<  c #0C233A",
"1  c #052438",
"2  c #112135",
"3  c #182B3A",
"4  c #1F3633",
"5  c #253B25",
"6  c #223133",
"7  c #344B2D",
"8  c #33472C",
"9  c #2E5326",
"0  c #35562B",
"q  c #2A453B",
"w  c #324C3F",
"e  c #3B5A37",
"r  c #2A4E22",
"t  c #3E6337",
"y  c #415A3A",
"u  c #45643C",
"i  c #50753C",
"p  c #192C41",
"a  c #173247",
"s  c #24384B",
"d  c #243D51",
"f  c #293F56",
"g  c #333947",
"h  c #273F61",
"j  c #2E4949",
"k  c #304F40",
"l  c #3C5944",
"z  c #2B4654",
"x  c #35495A",
"c  c #345150",
"v  c #354662",
"b  c #384865",
"n  c #37526B",
"m  c #344C74",
"M  c #2C496E",
"N  c #435450",
"B  c #4B6B47",
"V  c #577A48",
"C  c #5C6957",
"Z  c #567A54",
"A  c #5A4F78",
"S  c #5D547B",
"D  c #59537A",
"F  c #555F68",
"G  c #7B4F6B",
"H  c #784B66",
"J  c #7A526D",
"K  c #74536E",
"L  c #674E74",
"P  c #63527A",
"I  c #675276",
"U  c #725271",
"Y  c #72567A",
"T  c #734E70",
"R  c #44627B",
"E  c #49687D",
"W  c #566270",
"Q  c #636863",
"!  c #824E68",
"~  c #825069",
"^  c #528334",
"/  c #55853B",
"(  c #558C3C",
")  c #5A8A3E",
"_  c #598839",
"`  c #5D923E",
"'  c #4C8534",
"]  c #548140",
"[  c #5B8D43",
"{  c #5D824B",
"}  c #5E8B4A",
"|  c #5A8543",
" . c #5C9343",
".. c #5D934B",
"X. c #5E8752",
"o. c #618D46",
"O. c #608747",
"+. c #629445",
"@. c #6A9D45",
"#. c #63934A",
"$. c #6B964D",
"%. c #639A49",
"&. c #6B9C4B",
"*. c #669C44",
"=. c #719C4C",
"-. c #628752",
";. c #6D9B54",
":. c #6B9655",
">. c #759A5A",
",. c #6DA246",
"<. c #6EA24B",
"1. c #74A54C",
"2. c #75AA4D",
"3. c #79AB4D",
"4. c #77A74A",
"5. c #6DA252",
"6. c #6FA559",
"7. c #74A653",
"8. c #75AB53",
"9. c #7AAC54",
"0. c #7BA35C",
"q. c #75AB59",
"w. c #7BAC59",
"e. c #76A458",
"r. c #7BB154",
"t. c #7CB25B",
"y. c #75B151",
"u. c #6E9465",
"i. c #789C6B",
"p. c #72926B",
"a. c #7BA865",
"s. c #81AB5D",
"d. c #82B35A",
"f. c #85B659",
"g. c #819979",
"h. c #82AB65",
"j. c #82AA6B",
"k. c #81A46C",
"l. c #84B665",
"z. c #86A772",
"x. c #3D5D8C",
"c. c #365886",
"v. c #3B5D99",
"b. c #3D5D90",
"n. c #3C649D",
"m. c #3E6393",
"M. c #3B5EA3",
"N. c #345FA3",
"B. c #3765A4",
"V. c #3C63A4",
"C. c #3C68A5",
"Z. c #3D65A9",
"A. c #3D69AA",
"S. c #485789",
"D. c #565D86",
"F. c #585A85",
"G. c #555986",
"H. c #455C94",
"J. c #4C5E94",
"K. c #525E93",
"L. c #44628A",
"P. c #456487",
"I. c #586087",
"U. c #5B6188",
"Y. c #53618A",
"T. c #51708F",
"R. c #436293",
"E. c #43659C",
"W. c #47699B",
"Q. c #4B6998",
"!. c #516196",
"~. c #59779A",
"^. c #4A709D",
"/. c #727085",
"(. c #405FA2",
"). c #4165A3",
"_. c #436BA4",
"`. c #4065AA",
"'. c #456BAB",
"]. c #486DA4",
"[. c #4C71AA",
"{. c #5174AB",
"}. c #5A7BAC",
"|. c #587BA6",
" X c #4B6EB3",
".X c #436CB1",
"XX c #4C74B7",
"oX c #567BB4",
"OX c #6E7FAA",
"+X c #5176C1",
"@X c #5D82B6",
"#X c #6B84AB",
"$X c #6B8BBC",
"%X c #6485B7",
"&X c #7C95BA",
"*X c #7492C4",
"=X c #7B97C7",
"-X c #6A8BC0",
";X c #8394B9",
":X c #9BA8B9",
">X c #BCC3BC",
",X c #8B9DC9",
"<X c #9EABC4",
"1X c #95ACD6",
"2X c #98B1DA",
"3X c #A5BCE5",
"4X c #B6C1D9",
"5X c #AFC5E9",
"6X c #BCD1EC",
"7X c #B7CCEF",
"8X c #C9D2C7",
"9X c #D4D8D8",
"0X c #C9CFCD",
"qX c #C9D7EE",
"wX c #D0E1FD",
"eX c #E6F4FF",
"rX c #EDFCFF",
"tX c #E8F7FF",
"yX c #F4FCFF",
"uX c #FBFEFD",
/* pixels */
"t.8.( ,.r.r.l.7.O.;.l.8. .5.d.f.l.s.o.@.t.f.f.8...:.t.t...,.t.l.",
"9.,._ *.9.2.8.1.) #.9.&.( %.3.4.$.$._ +.9.3.9.2. ...e.5. . .t.t.",
"9.1.7.7.2.2.8.1.2.<.^ #.q.8.t.| $ 9 h.7.2.9.y.2.q.6.[ [ 6.8.t.q.",
"2.1.1.7.4.2.<.2.2.@.( %.5.<.;.Z > k u.;.4.2.4.2.8.5.( +.y.q.q.q.",
"r.*.^ +.8.@.^ +.2.4.,.2.w./ @ z ~.R @ 0 e.,.( ` 2.2.9.e.q.6.( ..",
"2.*./ +.8.@.( +.2.3.2.2.9.| o f |.S.& 7 0.1.^ ` 2.8.9.8.t.y.[  .",
" .+.<.4.3.4.4.4.4.4.4.4.9.O.o z |.P.: 7 e.1.8.8.2.y.9.w.8.y.6.8.",
"( ` 8.4.1.4.4.2.4.3.1.4.s.V + d ~.P.- 8 0.4.1.7.2.2.q.6.y.y.y.y.",
"2.,.2.4.2.@.(  .8.,.( ..e.V O f }.P.& 8 s.=.)  .q.2.[ [ 8.r.2.r.",
"8.2.,.2.2.1.'  .8.,.^ } a.Z : z }.m.< q i.;./ } 7.q.)  .9.2.9.t.",
"9.1.` ` 4.,.4.=.( #.q.] # k T.!.C._.^.R > 7 0.=.} ) 7.9.8.y.r.2.",
"s.@.^ ` 4.4.s.=.] X.j.{ @ z OX}.n.C.oXm.1 q i.>.V } 8.8.9.w.y.r.",
"4.1.&.1.4.,.s.V # 5 % C 0X9XwX3XE.C.A.C.^.R 4 > # r a.7. . .8.r.",
"q.8.4.4.3.1.h.V @ ; + Q uXyXeX7X_.A.B.C.oXW.p = = > i.e./ ( q.9.",
"..%.2.@.O.i % C 8X8X8X9XuXqX#XoXZ.A.C.).C.V.W.Q.R.R q 7 >.8.9.9.",
"[ [ q.%.V B   Q uXyXyXtXtX7XR.).A.V.`.V.B.B.@X{.oX^.< 4 i.a.8.9.",
"=.%.[ i # C >X9XuXqX#X$X$X}.'.`.Z.Z.C.V.B.C.A.A.).E.Q.E q 9 ;.8.",
"s.:.{ B . F yXeXrX6XE.V.E.E.).`.Z.C.V.n.E.C.A.A.`.).{.^.< > u.j.",
"9.} > j S.^.=X*X$X#XE.%X5X1X).`..XZ.V.{.3X2X_.Z.V.).'.n.c.n k 7 ",
"t.] o d |.{..XXXv.m.m.#XrX6XR.Z.(..Xv.OXeXqXW.V.'.B.Z.V.C.S.3 + ",
"a.X.o d [.XX+XXXV.}.5X<XW /.5X2X).oX3X<XF /.4X1X_.Z.M.Z.V.x.3 ; ",
"l.X.. d {.XX+XXXM.$XrX4XX N yX6XE.oXeXqX& g eXwX].Z.Z.Z.V.x.3 ; ",
">.i . s {.XXA.Z.M.{.*X;X:X:X&X$X_.[.*X;X:X:X&X-XC.A.C.B.Z.R.3 ; ",
"{ u O s {..XN.Z.M.H.S.OXrXqXx.V.).V.v.|.eXwXD.S.n.C.B.C.V.x.p ; ",
":.B + s {..XB.M.(.K.L /.,X,X(.Z.C.V.B.[.,X;XY I J.C.V.Z.v.x.p ; ",
"a.{   4 |.'.M.M.(.S.Y T A S.K.K.!.J.!.!.D S U I J.M.M.V._.P.2 + ",
"t.:.0 w b c.`.Z.N.J.D L T T G G H K H G K K I G.H.).M.n.M z B u ",
"9.&.| u . a }.{.E.!.S.F.T H ! ! ! G ! ~ H U F.H.Q.Q.E.R.1 + i.a.",
"8.<. .V 0 e x n M m H.S.D A P I P P P A P F.H.H.m b m x k 9 6.6.",
"9.8.1.5.h.-.  = . p H.R.Y.U.D.F.F.U.U.I.D.D.Q.H.& . . = X.X.5.y.",
";.&.1.1.:.O.0 0 7 l x b v v b b x x x v x b m x l l t t X.$.6.q.",
"[ ) 8.=.^ o.j.k.k.u.= * , < 2 2 2 , , < * 2 * 4 g.z.z.j.a.j.w.h."
};
