/* XPM */
static char *_71a9d0bc2c34846afb9e4a6130e52bcFKnkWPFaqvhWN9v1[] = {
/* columns rows colors chars-per-pixel */
"32 32 43 1 ",
"  c #467B2B",
". c #4B7E33",
"X c #4D7F38",
"o c #4D8233",
"O c #4E8339",
"+ c #518635",
"@ c #52853C",
"# c #54893C",
"$ c #588D3E",
"% c #5C913E",
"& c #61973F",
"* c #528540",
"= c #568A42",
"- c #5A8E43",
"; c #5B8E4A",
": c #5D9245",
"> c #5E9249",
", c #619645",
"< c #649A45",
"1 c #689E45",
"2 c #62964A",
"3 c #659A4B",
"4 c #699E4C",
"5 c #629552",
"6 c #679A51",
"7 c #699D52",
"8 c #6CA346",
"9 c #6DA34D",
"0 c #71A74E",
"q c #73AA4D",
"w c #6DA352",
"e c #6EA359",
"r c #71A653",
"t c #74AB54",
"y c #78AE55",
"u c #72A659",
"i c #75AB59",
"p c #79AE5B",
"a c #7AB155",
"s c #7AB15B",
"d c #79AE61",
"f c #7DB362",
"g c #82BA61",
/* pixels */
"gs>;ppsp:-id>=watt<#wsqa<#3f6O7f",
"si>>iptt,:7e<%wtqt<-1ttq<-<w<:4s",
"atptttptse=#wqtit0tatttqtt>+<tts",
"stq9qprwii>-wtw9wt99wtw1wt3=1q0w",
"su$=pi-@wseetr;*9i:+4i:o1q8qqq<;",
"uw>-tu>-rttqtt-=6w:=3t<=1tqqqa6;",
">:tttsuit0atqttt:#3attwwt0qq0ttt",
">=taqauustqqttqt>#1qqtt9r001ttqs",
"sttsty;=ey-#0tqtq0tq0r,O<t<o<tqt",
"strqae:=we:=rqtqtq0q0q3#<t,O1qqa",
"sq>-qyee:#eestatqa>#<a0e>*<rqqtq",
"st--qaay--eit0qqtr>=<r0t3O<sqqqa",
"ssr0aaqatiee<#wtrtt0qt0qqqwt4#<a",
"fitartttstty>@4tte00wq089qqt3#<t",
"5>tt:-eaqaq0trqi,+1a,#<0qqq0ieqt",
">=ui-@iit0atirtq,+<e>O<t080qirrs",
"7g,,22g4;X2g1XgXqw:#>w0q3+>yw@3y",
"ggXXgg4g- ggX.Xgrs,O3y00>@<e6@<e",
"g6447gg,g5gXgg2gqr09wqrqqr3+>9qy",
"4g4g4gggggX.Xgggirtiqettte>+&qye",
"gu--7g=&-gXgg&,24i<#4i<+<t888aw;",
"uu2X2gXX2ggX8gXX7i:o6e<+&qqqqa3@",
"6264g4gXg1g&XggX>-380rw39a0qqtw9",
";X4g,gg2gg1ggg1g, <tqqiit0qrtqty",
"6448gg2-ggX,gg1g1&11&ggX3t4$1t0y",
"uggg802X6gXX&&gXg1ggggX :i3o%tqq",
"uu26406225gXg&ggg1gXXggX>>><8qqy",
"g7-X7gug-.2ggg&g1g&.Xg&g8O:iirtq",
"g24%90g4XXgX62g1g,,&Xg1g4&Xgu23p",
"4gg7g0g9gggg, Xg,ggggggXg4g66X$p",
"66ug664gg&g2gX8gg&XggXXgg&6gu>7i",
"5*6g5X5gg&gggg8gX.Xg2X,g&gg7ggug"
};
