/* XPM */
static char *_ada32b46b34403ca3ef47a6794d3ceaFSKFCqaQYeyUMkUH[] = {
/* columns rows colors chars-per-pixel */
"32 32 240 2 ",
"   c #2B1717",
".  c #321215",
"X  c #392A0A",
"o  c #352314",
"O  c #3B1720",
"+  c #591A19",
"@  c #491712",
"#  c #611716",
"$  c #5C320A",
"%  c #492915",
"&  c #572C17",
"*  c #5C3717",
"=  c #552D09",
"-  c #692715",
";  c #673818",
":  c #723E15",
">  c #75300F",
",  c #4D2B23",
"<  c #723728",
"1  c #69461A",
"2  c #77471E",
"3  c #7A5217",
"4  c #724925",
"5  c #785425",
"6  c #6E462B",
"7  c #8B3616",
"8  c #A63116",
"9  c #B43916",
"0  c #AC320D",
"q  c #BA3820",
"w  c #CC1C09",
"e  c #D51B04",
"r  c #D21713",
"t  c #FC1B09",
"y  c #FF1F13",
"u  c #CC230E",
"i  c #C72C09",
"p  c #D52506",
"a  c #CA2814",
"s  c #D22513",
"d  c #D32914",
"f  c #D5281B",
"g  c #C63418",
"h  c #D73A14",
"j  c #C4350B",
"k  c #E9280B",
"l  c #FE240C",
"z  c #F42B0E",
"x  c #FC2B0D",
"c  c #FA2504",
"v  c #E5360A",
"b  c #F62A12",
"n  c #FB2B13",
"m  c #FE2C1A",
"M  c #FB2613",
"N  c #EC3919",
"B  c #FD3413",
"V  c #FD3219",
"C  c #F33818",
"Z  c #EE2D0F",
"A  c #D62922",
"S  c #F93F21",
"D  c #834717",
"F  c #895315",
"G  c #99581A",
"H  c #8F5113",
"J  c #BA4418",
"K  c #AA5B1A",
"L  c #BB561A",
"P  c #AC4814",
"I  c #9D6C1C",
"U  c #9A6518",
"Y  c #946A1B",
"T  c #A56A19",
"R  c #B66D1B",
"E  c #A7761A",
"W  c #BC741D",
"Q  c #BC7B1C",
"!  c #B77618",
"~  c #B1780D",
"^  c #965B23",
"/  c #885725",
"(  c #B44D25",
")  c #B55724",
"_  c #9C6B22",
"`  c #9B6825",
"'  c #8A682E",
"]  c #A66825",
"[  c #BA6C22",
"{  c #AA7524",
"}  c #BA7424",
"|  c #BB7C22",
" . c #B77827",
".. c #B37330",
"X. c #CC481A",
"o. c #D14816",
"O. c #E94618",
"+. c #FA4A14",
"@. c #F14E0D",
"#. c #C5661B",
"$. c #C1731B",
"%. c #C9771B",
"&. c #D06F16",
"*. c #FB7A1F",
"=. c #EB482C",
"-. c #F84833",
";. c #F15424",
":. c #C57D25",
">. c #CA7A23",
",. c #C47629",
"<. c #C67828",
"1. c #CE6B22",
"2. c #F97F2C",
"3. c #CC5326",
"4. c #3A893B",
"5. c #3F953A",
"6. c #488A38",
"7. c #4B9339",
"8. c #489838",
"9. c #5A9B3D",
"0. c #579A3A",
"q. c #47922D",
"w. c #629E38",
"e. c #5AA43A",
"r. c #5CAD3C",
"t. c #58A839",
"y. c #59B438",
"u. c #4DA13F",
"i. c #62AD3E",
"p. c #63A439",
"a. c #66B43C",
"s. c #3B8945",
"d. c #478A46",
"f. c #4C9442",
"g. c #489647",
"h. c #539444",
"j. c #549947",
"k. c #528F55",
"l. c #639B4A",
"z. c #6B9D4A",
"x. c #4BA146",
"c. c #5CA442",
"v. c #5DAC44",
"b. c #57A749",
"n. c #5BB153",
"m. c #63AC44",
"M. c #6AAB45",
"N. c #64AD4B",
"B. c #66A948",
"V. c #72AD4C",
"C. c #63B242",
"Z. c #6AB24B",
"A. c #68B348",
"S. c #6DAD54",
"D. c #6EAE5A",
"F. c #72AA57",
"G. c #69B556",
"H. c #72B856",
"J. c #70B042",
"K. c #B5841D",
"L. c #BB8527",
"P. c #AE8233",
"I. c #B4A13B",
"U. c #C6861B",
"Y. c #D5861D",
"T. c #CC8324",
"R. c #C88628",
"E. c #D48527",
"W. c #D3972B",
"Q. c #C98539",
"!. c #D68834",
"~. c #C79134",
"^. c #DA9A39",
"/. c #CB992C",
"(. c #FA8F2E",
"). c #D7AA2A",
"_. c #CAAA3A",
"`. c #CEBC3D",
"'. c #DABB39",
"]. c #D2A233",
"[. c #F7A938",
"{. c #E7BA3B",
"}. c #F7B639",
"|. c #EBAF2D",
" X c #E8C63A",
".X c #F5C939",
"XX c #FCD73A",
"oX c #EFD63C",
"OX c #F9E63E",
"+X c #FBF23D",
"@X c #89A25E",
"#X c #899F6A",
"$X c #96AA79",
"%X c #9EB47B",
"&X c #8BAA72",
"*X c #DA8D43",
"=X c #D69646",
"-X c #D3B442",
";X c #EBBC44",
":X c #E68E44",
">X c #A4C17F",
",X c #DEC844",
"<X c #F6C945",
"1X c #E8D446",
"2X c #FDDC44",
"3X c #FDDD4A",
"4X c #FBD647",
"5X c #F8DB53",
"6X c #EAC651",
"7X c #FEE245",
"8X c #FCE54A",
"9X c #FCEB4A",
"0X c #FCE946",
"qX c #F9F54A",
"wX c #FCE555",
"eX c #FCEB55",
"rX c #FEF356",
"tX c #EEE646",
"yX c #D2C260",
"uX c #FFEA6C",
"iX c #F9F16D",
"pX c #9BB28B",
"aX c #A4BB84",
"sX c #A1C18C",
"dX c #A5C190",
"fX c #DACF99",
"gX c #CECF90",
"hX c #FDEE9B",
"jX c #F7E8AB",
"kX c #FFF6A8",
"lX c #FDFCB4",
"zX c #FEF7B7",
"xX c #F2EAB6",
"cX c #FEFEC5",
"vX c #FBFDCD",
"bX c #F3F4C7",
"nX c #FDFEDB",
"mX c #F9FFD2",
"MX c #F5ECC4",
"NX c #FBFDE3",
/* pixels */
"H.D.s.7.N.C.Z.A.g.s.v.A.g.d.B.a.p.C.k.d.e.G.i.V.0.s.j.A.x.d.0.H.",
"N.y.5.6.n.Z.m.n.g.g.b.h.b.s.b.n.M.i.8.6.v.v.y.y.7.5.f.j.8.6.t.B.",
"H.i.&XyX,XL ( ,X,X1X^.0 q 9 9 9 q J 0 8 J 9 ^. X X{.8 P '.I.e.A.",
"y.t.aXuXXXp d 4XwX+X[.e e p p e r e e e e p [.XX2X{.w h 4X_.0.m.",
"H.c.pXvXjXN =.zXhXqX}.b x k z z n z z b z k }.2XzXjXk =.cXgX6.d.",
"b.j.pXNXbXB ;.NXkX+X|.y x z n x x x x V c x }.8XzXxXz O.vXgX6.8.",
"f.4.pXNXzXn S nXlX9X[.y n m n x V n x z Z x |.OXzXjXM =.cXgXk.Z.",
"h.4.aXnXMXm -.mXkX9X[.c B n c n z n c x b M }.7XcXjXb -.vXgXw.a.",
"a.m.aXNXMXC -.nXlX0X[.l l l m z Z y y l l c }.0XcXxXV -.mXfXw.C.",
"G.e.sXNXMXm -.mXhX9X[.O.S +.B n x V N @.+.o.}..XkXhXb =.lXgXj.J.",
"A.b.aXuX5XB +.rX1X&.).8X4XeX*.t n t [.+X7X2XU.$.oX4Xx N XX'.u.a.",
"A.t.aXiXoXb +.wX XR.^.5X<X4X2.O.@.O.(.<X{.;XR.U..X}.Z O.XX'.B.a.",
"G.y.aXuX4Xv v E.|.qX].; 9 c (.5X7XeX;.t 7 = [.OXK.$.w h 3X`.6.a.",
"Z.e.dXiX.Xh h | W.qX_.$ J B [.9X2X2X(.+.H 2 ,X7XW.U.o.;.3X-Xh.G.",
"j.q.aXrX+X4X2X8XrXqX X>.{.0XtX9X0X7XoX9XW.&.<X7X7X9X7X3XrX`.w.M.",
"k.4.aXiX2XwXOX7X4X5X).T ^.2X.X X X X.X.XK.U {.<X{..X{.{..X).9.A.",
"V.u.pX=XT.!.E.:.U.!.U $ G !.F ; : & T %.1 = T R.$.[ ! ~ ! T 7.J.",
"D.C.%X~.%.} | T.<.W U 5 ] E.D = = * ] :.Y / T G E ,.G G %.] f.S.",
"S.t.$X:XR % * T.K . ' rX).U.1 O o . ^ >.XXrX* . ! R   X E I 9.N.",
"S.y.$X:X .+ < !._ o ' 6X/.{ 2 % , % G R /._.4 & R R + - ! T p.a.",
"S.i.&XQ.%.i X.E.T.<./ o & - ` L.} R.7 ; o   _ U.{ $.g g $.U h.6.",
"S.v.$X*X1.k N R.U.!.^ @ ; > P 1.#.#.H > - + T  .Q [ s i ! ~ f.d.",
"k.6.&X!.>.A h :.<.!.3.r d d u a u u d f r s 1. . .$.p i R T 0.e.",
"k.4.&X*X%.f o.W.!.E L g i p a d a d d d d X.L T ~.T.J g W I B.C.",
"l.8.$X!.<.<.^.rX_.- F K.o.u f u i f k i 1.R.1 $ <X8XU.K.W ] p.a.",
"V.r.%XL.R.,.~.wX_.< G E ( j a u i A A g ) ` D 4 -X;X_ Y  .I e.M.",
"N.v.$X*X..@ ; *XQ.:.5   5 R.J u f u #.L.=   ` ,.Q R . O { E p.m.",
"S.t.#XP.{ % 6 :.| Y.^ , 5 $.J i a 0 L | ; , E  . .} 1 * G U p.i.",
"a.r.#X< 3 } R.R.R.:.<. . .W } } ! $.W $.,. .Q R E ! Q T - % 0.C.",
"B.Z.@X6 5 L.P...P.P.P.{ T I .._ _ _ { _ _ E _ _ T F H 3 X X 6.G.",
"b.g.r.z.j.f.n.V.B.c.p.B.9.8.e.r.0.6.8.c.j.q.7.e.l.9.j.l.e.h.c.v.",
"k.d.v.N.g.d.b.Z.N.Z.C.C.G.N.M.S.j.6.x.G.h.4.l.m.a.V.F.F.F.F.S.F."
};
