/* XPM */
static char *_7821db07fd843bbdb03a89a36976c20OUmvLpZz75yW0FHV[] = {
/* columns rows colors chars-per-pixel */
"31 32 211 2 ",
"   c #1D1317",
".  c #21181B",
"X  c #1F1520",
"o  c #291E24",
"O  c #291D29",
"+  c #241823",
"@  c #2D222D",
"#  c #2E2224",
"$  c #362A2B",
"%  c #3C312F",
"&  c #2E2532",
"*  c #322632",
"=  c #342B34",
"-  c #3A2E34",
";  c #352C3A",
":  c #392E3B",
">  c #3C3234",
",  c #3B323C",
"<  c #37313D",
"1  c #45372C",
"2  c #473932",
"3  c #40363E",
"4  c #443A3B",
"5  c #4A3C3B",
"6  c #493A33",
"7  c #4F4139",
"8  c #53453A",
"9  c #564838",
"0  c #6E4F3B",
"q  c #62533E",
"w  c #382F40",
"e  c #3D3643",
"r  c #413642",
"t  c #443B46",
"y  c #4B3E44",
"u  c #453C4A",
"i  c #4A3E49",
"p  c #4D3F50",
"a  c #4E4345",
"s  c #4D424B",
"d  c #43414E",
"f  c #554943",
"g  c #52454C",
"h  c #56494B",
"j  c #5B4D4C",
"k  c #544645",
"l  c #5E5445",
"z  c #5D534C",
"x  c #4E4553",
"c  c #4D4655",
"v  c #554B52",
"b  c #5A4E54",
"n  c #554A5A",
"m  c #584B59",
"M  c #5D5254",
"N  c #5B525B",
"B  c #644E41",
"V  c #625444",
"C  c #615947",
"Z  c #62544C",
"A  c #65594B",
"S  c #6B5747",
"D  c #725A47",
"F  c #625553",
"G  c #655A54",
"H  c #62565D",
"J  c #655A5E",
"K  c #695C5D",
"L  c #6B5B53",
"P  c #765F57",
"I  c #7E684C",
"U  c #6F6158",
"Y  c #77675B",
"T  c #7C705A",
"R  c #5C5563",
"E  c #5D5865",
"W  c #555160",
"Q  c #635A64",
"!  c #695E64",
"~  c #635C6B",
"^  c #695E6C",
"/  c #635763",
"(  c #6B6165",
")  c #6B636C",
"_  c #6E686F",
"`  c #64616A",
"'  c #726465",
"]  c #73666E",
"[  c #766A6C",
"{  c #7A6C6D",
"}  c #766A64",
"|  c #7F706B",
" . c #6E6573",
".. c #6F6975",
"X. c #726574",
"o. c #756B74",
"O. c #796D75",
"+. c #736C7B",
"@. c #7B6E79",
"#. c #7D7274",
"$. c #7D737B",
"%. c #76727D",
"&. c #805F4E",
"*. c #826F54",
"=. c #856955",
"-. c #8B7B59",
";. c #947958",
":. c #806E62",
">. c #83756D",
",. c #877665",
"<. c #827473",
"1. c #83767B",
"2. c #857A7B",
"3. c #8A7E7C",
"4. c #8C7F76",
"5. c #987561",
"6. c #8E805B",
"7. c #99865B",
"8. c #978761",
"9. c #8E8274",
"0. c #978878",
"q. c #A09265",
"w. c #7C7582",
"e. c #7F7987",
"r. c #847784",
"t. c #867C84",
"y. c #897E86",
"u. c #847B8A",
"i. c #897E89",
"p. c #8B818C",
"a. c #898287",
"s. c #928384",
"d. c #93858C",
"f. c #968A8D",
"g. c #988B89",
"h. c #8E8693",
"j. c #8B8491",
"k. c #958A93",
"l. c #9B8D94",
"z. c #998C9A",
"x. c #948692",
"c. c #9C9294",
"v. c #97939B",
"b. c #9C939D",
"n. c #A2969C",
"m. c #A59896",
"M. c #AFA19E",
"N. c #9C95A3",
"B. c #9F9AA4",
"V. c #9A8BA0",
"C. c #A49AA3",
"Z. c #AA9DA4",
"A. c #AA9EAB",
"S. c #A297A5",
"D. c #AC9FB0",
"F. c #AEA2A3",
"G. c #ADA2AC",
"H. c #B2A6AC",
"J. c #B5AAAA",
"K. c #B8AAAD",
"L. c #B1A3A2",
"P. c #ACA5B1",
"I. c #B4A9B2",
"U. c #B9AEB4",
"Y. c #B6ABB9",
"T. c #BBB1B6",
"R. c #BDB3BB",
"E. c #B5B2BD",
"W. c #C4B7B2",
"Q. c #C9BBBF",
"!. c #BCB4C4",
"~. c #C4BBC4",
"^. c #C7BBC7",
"/. c #CBC2C5",
"(. c #CDC4CC",
"). c #C9C4CA",
"_. c #D2C6CD",
"`. c #D4C9CA",
"'. c #CDC5D2",
"]. c #CEC9D0",
"[. c #D2C6D3",
"{. c #D4CBD5",
"}. c #D4C7D8",
"|. c #D5CCD9",
" X c #D9CDDB",
".X c #D8CFD4",
"XX c #DCD2DC",
"oX c #DCD6D9",
"OX c #E0D4DC",
"+X c #E5DADC",
"@X c #DBD4E2",
"#X c #E4DAE4",
"$X c #E5DCEA",
"%X c #E9DEEA",
"&X c #E4D7E4",
"*X c #EEDFF4",
"=X c #ECE3EC",
"-X c #EBE5E5",
";X c #F7EDEE",
":X c #F0E6EE",
">X c #EEE5F2",
",X c #EEEBF1",
"<X c #F1E6F6",
"1X c #F4EBF5",
"2X c #F4EAFA",
"3X c #F9EDFB",
"4X c #F6E9F7",
"5X c #FBF1F5",
"6X c #FCF3FD",
"7X c #FFFCFE",
"8X c #F5F1F9",
/* pixels */
", : c !.2XN...( M [ /. X~.{.7X7X-X#._ N w n t : : x ~.<XN.+.+.",
": + u.<X2X^.( ( z F.@XE.{.=X7X7X].( e.E ; u w.r X x.>X4X^.^  .",
"H * b.&X5X-X( M 2.`.I.I. X>X8X7X).` h.%.O : i.~ * n.&X3X=XN R ",
"z.s   /.7X`.9.} W.J.1.Q.{.%X6X7XP.E w.v.= r ] l.i + (.7XXXG.w ",
"e.o.% 2.+XM.Y 4.L.m.d.R.'.'.3X@Xj.E u.B.x - K s.[ > s.`.H.H.s ",
"v v #.4 % 2.<.s.K.5X#Xt.+.@X<X!.u.a.k.d.! o j { >.} f 7 <.<.O.",
"..& b #.1.[ | m.=X&X1XT.= w.~.^.a.) ( J { 5 2 L L L L f Y [ c.",
"B.W C.+X4Xt./ U.#X(.,X~. .e ^ Y.%.a M z L Z $ 9 V V 9 8 F L U.",
"e.'.6X1X6X-XN.w.h.@X2Xa.X.: t X.%.s z z C q 1 7 S q 7 1 7 <.A.",
"!.2X=X=X6X8X!.j.W w.!.` N.: ; O , , 8 l l V 7 l C A V 2 | f.d.",
"=X{.(.1X7X#XP.w.E d c ..w.^ p m ) s l l l C 9 7 9 z M { <.d.C.",
"XXU.#X7X7X)...` d c c e r N O. X}.@.[ l A C A 8 8 5 d.4Xz.@.p.",
"~..X5X7X7Xv.` %.e w ~ n O * I.3X#Xw.o.M z z z G j #.%X2XD.X.X.",
"(.+X6X6X7Xk.o.a.d & ^ p.+ H #X=X7Xz.N ( h G G z K K.%X2X$XN ^ ",
"!.@X,X7X,Xa.J B.N # x x.Q @ i.6X:X~.m N M 4 z G t.H.&X6XOXa.t ",
"|.|.=X6X].E E v.%.o s i.p.: g 6X+X~.t.; s . 4 ( n._.;X5X/.R.< ",
"N.P.<X&XA.o.t.k.l.~.R.Q b { b h s.g.<.a c..Xa.s ] F.J.M.l.p.( ",
"N ~  X}.C.@.@.X.(.7X6Xb.@ y F 1 A >.{ J.;X7X.XN . N <.U | { 3.",
"z.w ~ A.A.H v k.&X~.1X(.N y M k F ' 1.#X^.oX,Xv.t N f h K ' H.",
"N.d u / b.v ( H.R.=X<XN.] 3 k y p p l.E.(.7XE.j.u s a j 5 [ K.",
"a.E & ; i ( d.c.~.-X#X_ i.w 3 @ 5 r.x.I.[.6XN.e.R & - - ! d.l.",
"h.w.< & * o.x.l.Z.@X{.) V.p * @ B i.l.n.T.6Xh.w.e.= ; - O.f.l.",
"d / ~  .}.j.i.z.p.#XQ.H p X.m D.~.O.l.3.T.#Xh.p ~ ~  .^.i.i.l.",
"t @ n }.3XA.X.X.r.B.Z.( * w V.4X X@.] ' f.I.i.u @ n  X3XZ.^ <.",
"y o z.4X4X|.~ X.v a.g.a * s &X*X6Xj.^ H J n.( , O b.<X4X{./  .",
"$ ( G.XX6X$X .n / h J $ y z.^.4X6XY.i _ v J g @  .G..X5X=X^ n ",
"a g.^.;X6X{.!.w b 3 o $ [ U.OX6X$X'.@., v   # h n.~.5X7X[.R.: ",
"<.c.K.+X8Xb.A.u 4 - 1 ' 0.n.Q.5X[.S.y.= ( 1.N M k.Q././.Z.n.b ",
">.9.9.m.oX] X.b 5 5 B >.>.9.g._.T.[ <.t.-X7X!.x @ { y.<.<.#.#.",
"q ,.T 0.Q.z B G B B D =.=.5.:.W.m.K <.+XoXoX2Xe.= b G k } [ m.",
"9 6.-.8.0.D S :.&.D 0 =.7.7.*.q.:.a s.(./.,X}.N.i b y Z h ! K.",
"T 8.q.7.I D D 5.=.&.;.;.;.7.q.-.9 P n.G.].6XB.r.x : 1 5 y i.Z."
};
